<?xml version="1.0" encoding="utf-8"?>
<!-- Generator: Adobe Illustrator 26.5.2, SVG Export Plug-In . SVG Version: 6.00 Build 0)  -->
<svg version="1.1" id="Layer_2_00000022520276802803641970000006362880989192740286_"
	 xmlns="http://www.w3.org/2000/svg" xmlns:xlink="http://www.w3.org/1999/xlink" x="0px" y="0px" viewBox="0 0 422.2 453.6"
	 style="enable-background:new 0 0 422.2 453.6;" xml:space="preserve">
<style type="text/css">
	.st0{fill:#231F20;}
</style>
<path class="st0" d="M167.1,107.1v292c0,0-2,55.9-65.8,54.5v-290C101.3,163.6,103.9,105.7,167.1,107.1z"/>
<path class="st0" d="M202.7,109.7c8.3,6.9,21.5,19.9,29.4,40.3c12.9,33.6,2.3,63.7-1.4,73.7c-7.5,20.1-19.1,33.7-26.6,41.2
	c2.2-0.3,56.8-7.4,75.2-52.9c3.2-8,10.8-30.7,1-54.9C268.7,129,238.2,110.2,202.7,109.7L202.7,109.7z"/>
<path class="st0" d="M225,278c9.3,6,26.8,19.2,38.9,42.6c3.9,7.6,11.9,23.3,12.1,45c0.3,27.1-11.6,46.5-17.5,55.7
	c-10.3,16.3-22.5,26.6-30.6,32.3c43.5-2.9,79.4-29.8,89.9-66.2c10.4-36.2-8.6-66.7-10.4-69.5C290.1,291,258.5,275.8,225,278L225,278
	z"/>
<ellipse class="st0" cx="144.2" cy="37.2" rx="35.9" ry="37.2"/>
</svg>
